<svg aria-label="Default logo" fill="none" height="35" role="img" viewBox="0 0 132 35" width="132" xmlns="http://www.w3.org/2000/svg"> <path clip-rule="evenodd" d="M23.475 21.0629C26.2798 19.5694 28.2 16.53 28.2 13.0234C28.2 8.03994 24.3217 4 19.5375 4C16.1712 4 13.2533 6.00019 11.8195 8.92187H3V30.25H23.475V21.0629ZM24.2625 13.0234C24.2625 15.7417 22.1471 17.9453 19.5375 17.9453C16.928 17.9453 14.8125 15.7417 14.8125 13.0234C14.8125 10.3051 16.928 8.10156 19.5375 8.10156C22.1471 8.10156 24.2625 10.3051 24.2625 13.0234ZM10.875 13.0234H6.93749V26.1483H19.5375V22.0468C14.7533 22.0468 10.875 18.0069 10.875 13.0234Z" fill="#007DFC" fill-rule="evenodd"></path> <path d="M35.55 25.8664H45.0178V23.0413H38.9151V12.4H35.55V25.8664Z" fill="#4A5568"></path> <path d="M50.6273 23.983C49.2775 23.983 48.5738 22.8152 48.5738 21.0637C48.5738 19.3121 49.2775 18.1256 50.6273 18.1256C51.9767 18.1256 52.6996 19.3121 52.6996 21.0637C52.6996 22.8152 51.9767 23.983 50.6273 23.983ZM50.646 26.1677C53.7829 26.1677 55.8365 23.9641 55.8365 21.0637C55.8365 18.1632 53.7829 15.9596 50.646 15.9596C47.5283 15.9596 45.437 18.1632 45.437 21.0637C45.437 23.9641 47.5283 26.1677 50.646 26.1677Z" fill="#4A5568"></path> <path d="M61.2661 29.2C62.7109 29.2 63.9846 28.8798 64.8402 28.1264C65.6196 27.4297 66.133 26.3748 66.133 24.9247V16.2234H63.1673V17.2592H63.1289C62.559 16.4494 61.6841 15.9408 60.3913 15.9408C57.9768 15.9408 56.3038 17.9372 56.3038 20.7623C56.3038 23.7193 58.3382 25.339 60.5246 25.339C61.7033 25.339 62.4449 24.8682 63.0148 24.2278H63.091V25.1884C63.091 26.356 62.5398 27.0339 61.2278 27.0339C60.2015 27.0339 59.6881 26.6011 59.517 26.0926H56.5133C56.8172 28.1076 58.5856 29.2 61.2661 29.2ZM61.247 23.0601C60.0874 23.0601 59.3267 22.1184 59.3267 20.6682C59.3267 19.1991 60.0874 18.2574 61.247 18.2574C62.5398 18.2574 63.2243 19.3498 63.2243 20.6493C63.2243 22.0054 62.5968 23.0601 61.247 23.0601Z" fill="#4A5568"></path> <path d="M72.2314 23.983C70.8815 23.983 70.1778 22.8152 70.1778 21.0637C70.1778 19.3121 70.8815 18.1256 72.2314 18.1256C73.5808 18.1256 74.3037 19.3121 74.3037 21.0637C74.3037 22.8152 73.5808 23.983 72.2314 23.983ZM72.2501 26.1677C75.387 26.1677 77.4406 23.9641 77.4406 21.0637C77.4406 18.1632 75.387 15.9596 72.2501 15.9596C69.1324 15.9596 67.0409 18.1632 67.0409 21.0637C67.0409 23.9641 69.1324 26.1677 72.2501 26.1677Z" fill="#4A5568"></path> <path d="M78.3456 25.8664H81.4441V16.2234H78.3456V25.8664ZM78.3456 14.8861H81.4441V12.4H78.3456V14.8861Z" fill="#4A5568"></path> <path d="M82.7887 29.0493H85.8873V24.8682H85.9256C86.5339 25.6781 87.4275 26.1677 88.6819 26.1677C91.2297 26.1677 92.9218 24.1713 92.9218 21.0448C92.9218 18.1444 91.3438 15.9408 88.7581 15.9408C87.4275 15.9408 86.4769 16.5247 85.8115 17.3911H85.7545V16.2234H82.7887V29.0493ZM87.8838 23.7946C86.5526 23.7946 85.7924 22.7211 85.7924 21.1578C85.7924 19.5946 86.4769 18.4081 87.8268 18.4081C89.1574 18.4081 89.7849 19.5005 89.7849 21.1578C89.7849 22.7964 89.0625 23.7946 87.8838 23.7946Z" fill="#4A5568"></path> <path d="M97.967 26.1677C100.515 26.1677 102.397 25.0753 102.397 22.9659C102.397 20.4987 100.382 20.0655 98.6707 19.783C97.435 19.557 96.332 19.4628 96.332 18.7847C96.332 18.1821 96.9216 17.8996 97.6818 17.8996C98.5375 17.8996 99.1271 18.1632 99.2412 19.0296H102.093C101.94 17.1274 100.458 15.9408 97.701 15.9408C95.4006 15.9408 93.4994 16.9955 93.4994 19.0296C93.4994 21.2897 95.3057 21.7417 96.9978 22.0243C98.2906 22.2503 99.4689 22.3444 99.4689 23.2108C99.4689 23.8323 98.8797 24.1713 97.9483 24.1713C96.9216 24.1713 96.2754 23.7005 96.1613 22.7399H93.2334C93.3283 24.8682 95.1154 26.1677 97.967 26.1677Z" fill="#4A5568"></path> <path d="M106.606 26.149C107.956 26.149 108.812 25.6215 109.515 24.6798H109.572V25.8664H112.538V16.2234H109.439V21.6099C109.439 22.7588 108.792 23.5498 107.728 23.5498C106.739 23.5498 106.264 22.966 106.264 21.9112V16.2234H103.184V22.5516C103.184 24.6987 104.363 26.149 106.606 26.149Z" fill="#4A5568"></path> <path d="M113.886 25.8664H116.985V20.461C116.985 19.3121 117.555 18.5023 118.525 18.5023C119.456 18.5023 119.893 19.1049 119.893 20.1408V25.8664H122.992V20.461C122.992 19.3121 123.544 18.5023 124.532 18.5023C125.464 18.5023 125.901 19.1049 125.901 20.1408V25.8664H129V19.5946C129 17.4287 127.898 15.9408 125.692 15.9408C124.437 15.9408 123.392 16.4682 122.631 17.6359H122.593C122.099 16.6 121.129 15.9408 119.855 15.9408C118.448 15.9408 117.517 16.6 116.909 17.5982H116.852V16.2234H113.886V25.8664Z" fill="#4A5568"></path> </svg>